HIERARCHY
ROOT Hips
{
	OFFSET 0.000000 0.000000 0.000000 
	CHANNELS 6 Xposition Yposition Zposition Yrotation Zrotation Xrotation 
	JOINT Lumbar
	{
		OFFSET 0.000000 0.000000 0.000000 
		CHANNELS 3 Zrotation Xrotation Yrotation
		JOINT Neck
		{
			OFFSET 0.000000 0.445665 0.000000 
			CHANNELS 3 Zrotation Xrotation Yrotation
			End Site
			{
				OFFSET 0.000000 0.227535 0.000000 
			}
		}
		JOINT RightShoulder
		{
			OFFSET 0.019635 0.377685 0.194865 
			CHANNELS 3 Zrotation Xrotation Yrotation
			JOINT RightElbow
			{
				OFFSET 0.000000 -0.243375 0.000000 
				CHANNELS 2 Zrotation Yrotation
				JOINT RightWrist
				{
					OFFSET 0.000000 -0.264825 0.000000 
					CHANNELS 2 Zrotation Xrotation
					End Site
					{
						OFFSET 0.006600 -0.176220 0.000990 
					}
				}
			}
		}
		JOINT LeftShoulder
		{
			OFFSET 0.019635 0.377685 -0.194865 
			CHANNELS 3 Zrotation Xrotation Yrotation
			JOINT LeftElbow
			{
				OFFSET 0.000000 -0.243375 0.000000 
				CHANNELS 2 Zrotation Yrotation
				JOINT LeftWrist
				{
					OFFSET 0.000000 -0.264825 0.000000 
					CHANNELS 2 Zrotation Xrotation
					End Site
					{
						OFFSET 0.006600 -0.176220 -0.000990 
					}
				}
			}
		}
	}
	JOINT RightHip
	{
		OFFSET 0.052140 -0.069960 0.075570 
		CHANNELS 3 Zrotation Xrotation Yrotation
		JOINT RightKnee
		{
			OFFSET 0.000000 -0.402270 0.000000 
			CHANNELS 1 Zrotation
			JOINT RightAnkle
			{
				OFFSET 0.000000 -0.404085 0.000000 
				CHANNELS 3 Zrotation Xrotation Yrotation
				End Site
				{
					OFFSET 0.204105 -0.089430 0.008415 
				}
			}
		}
	}
	JOINT LeftHip
	{
		OFFSET 0.052140 -0.069960 -0.075570 
		CHANNELS 3 Zrotation Xrotation Yrotation
		JOINT LeftKnee
		{
			OFFSET 0.000000 -0.402270 0.000000 
			CHANNELS 1 Zrotation
			JOINT LeftAnkle
			{
				OFFSET 0.000000 -0.404085 0.000000 
				CHANNELS 3 Zrotation Xrotation Yrotation
				End Site
				{
					OFFSET 0.204105 -0.089430 -0.008415 
				}
			}
		}
	}
}
MOTION
Frames: 13
Frame Time: 0.02
-1.53732 -0.35682 1.01086 1449.72965 -17.84293 4.95281 45.87699 2.03426 6.81516 -14.67761 -3.10203 -0.83079 -28.65838 -3.8528 -24.36409 50.689 64.08453 -19.47806 -0.09609 6.39272 12.96876 57.30775 121.42026 -58.54024 -20.54685 -0.91972 31.64381 -0.3592 -9.21637 -53.23785 -8.57602 -4.24881 -2.958 48.77266 -4.71316 38.73215 -0.92709 -23.06155 -24.23781 -12.82833
-1.51298 -0.35254 1.00411 1449.86708 -17.48513 5.48814 45.96593 1.82946 6.71647 -14.89098 -3.1305 -0.83079 -30.35656 -3.85289 -22.99804 50.60865 63.03088 -19.65578 0.09316 6.19365 12.39543 57.47924 121.42825 -58.78197 -20.4701 -0.89631 32.11571 -1.33632 -8.07514 -55.8256 -9.82033 -4.01052 -2.88592 48.51726 -4.92704 35.24752 -4.52031 -20.6636 -19.91375 -10.41142
-1.49012 -0.34857 0.99729 1449.82533 -16.9461 5.92866 45.77894 1.70437 6.5995 -15.08769 -3.09263 -0.83079 -32.15416 -3.93629 -21.46444 50.45751 61.88402 -19.81006 0.30518 6.1482 11.96368 57.50762 121.44354 -58.96447 -20.4543 -0.87417 32.9032 -2.38844 -7.0033 -58.7891 -11.28558 -3.67885 -2.77469 48.48939 -4.86484 30.70364 -9.12532 -17.65452 -14.05387 -7.15883
-1.46671 -0.3445 0.99063 1449.85072 -16.47414 6.38801 45.69037 1.55452 6.46658 -15.28904 -3.07546 -0.83079 -33.85976 -3.97308 -20.0588 50.30268 60.81298 -19.97486 0.49957 6.03769 11.48912 57.59424 121.44682 -59.17188 -20.40382 -0.85755 33.57054 -3.37487 -5.92591 -61.57016 -12.60258 -3.40939 -2.69019 48.30416 -4.91218 26.76613 -13.1924 -15.00074 -9.06391 -4.3813
-1.44271 -0.34024 0.98336 1449.9384 -16.06136 6.9545 45.71837 1.35335 6.43231 -15.5059 -3.09945 -0.83079 -35.7803 -4.04272 -18.43076 50.29616 59.59264 -20.14528 0.72527 5.90401 10.91509 57.70803 121.48427 -59.40068 -20.38 -0.8148 34.139 -4.49979 -4.72695 -64.422 -14.12638 -3.05745 -2.56873 48.32721 -5.03383 22.28533 -17.60005 -12.01433 -3.33097 -1.19036
-1.42031 -0.33645 0.97737 1449.85676 -15.48852 7.27126 45.44084 1.27789 6.18587 -15.68549 -3.02026 -0.83079 -37.27049 -4.06462 -17.22864 49.96791 58.66637 -20.29303 0.89132 5.8577 10.58576 57.72978 121.45379 -59.57522 -20.31306 -0.82427 34.99009 -5.35031 -3.80584 -67.19057 -15.27012 -2.85388 -2.51414 47.98258 -4.93212 18.68164 -21.53236 -9.57667 1.21742 1.3364
-1.40197 -0.33402 0.97478 1449.30491 -14.46655 6.94962 44.33927 1.54518 5.40586 -15.76396 -2.68711 -0.83079 -37.54208 -3.94189 -17.23399 48.73333 58.54444 -20.42819 0.8831 5.99812 10.89018 57.55685 121.22726 -59.49524 -20.15298 -1.01148 36.52325 -5.44679 -3.5892 -69.83812 -15.30964 -3.09342 -2.66012 46.50988 -4.28486 17.8708 -23.93051 -8.81571 2.05882 1.79034
-1.38519 -0.33205 0.97351 1448.59644 -13.2996 6.37482 42.9476 1.93374 4.40608 -15.80551 -2.24976 -0.83079 -37.37518 -3.76697 -17.67819 47.18369 58.72517 -20.53407 0.8151 6.22492 11.43841 57.2918 120.93361 -59.37873 -19.94202 -1.24597 38.33158 -5.25996 -3.65813 -72.34644 -14.95869 -3.48341 -2.87348 44.67206 -3.4209 17.96269 -25.80936 -8.62686 1.66285 1.5512
-1.36769 -0.32978 0.97174 1447.98955 -12.23266 5.89675 41.71919 2.2579 3.47556 -15.86492 -1.85034 -0.83079 -37.41106 -3.61238 -17.92526 45.80172 58.79191 -20.62271 0.77643 6.42298 11.88104 57.05393 120.67534 -59.35731 -19.72679 -1.43635 40.03043 -5.18797 -3.6291 -74.79238 -14.78599 -3.79776 -3.05186 43.04077 -2.65258 17.57093 -27.90771 -8.16904 1.87006 1.65005
-1.35027 -0.32787 0.96956 1447.24901 -11.01466 5.49104 40.34885 2.62523 2.66979 -15.91901 -1.48799 -0.83079 -37.43814 -3.4772 -18.14735 44.31504 58.7681 -20.83481 0.72772 6.58034 12.30676 56.87464 120.39676 -59.01455 -19.62376 -1.71976 41.68354 -5.17746 -3.47337 -77.80107 -14.61686 -4.14003 -3.2475 41.24543 -1.88598 17.44897 -30.11106 -7.72725 1.96003 1.68187
-1.33303 -0.32534 0.96854 1446.7509 -10.08005 4.87786 39.20852 2.92883 1.55695 -15.9759 -1.02502 -0.83079 -37.3753 -3.28525 -18.53956 42.97114 58.99062 -20.78902 0.68759 6.84301 12.82345 56.55129 120.14437 -59.31849 -19.28102 -1.82373 43.48191 -4.97052 -3.64178 -79.57572 -14.34574 -4.46048 -3.42344 39.7026 -1.06885 16.99665 -31.9593 -7.39646 1.97875 1.67687
-1.31588 -0.32089 0.97039 1446.97065 -9.95728 3.7358 38.77818 3.04012 -0.38959 -16.0474 -0.30657 -0.83079 -37.19564 -2.97622 -19.18687 42.11176 59.96001 -19.98552 0.66571 7.35684 13.53327 55.87139 119.98166 -61.54307 -18.22963 -1.39378 45.70796 -4.29097 -4.68798 -78.18153 -13.87738 -4.69377 -3.53347 38.94154 -0.15768 15.39085 -32.9471 -7.23128 2.10694 1.74235
-1.29883 -0.31581 0.97336 1447.43888 -10.12659 2.39776 38.59018 3.08021 -2.62962 -16.12356 0.50821 -0.83079 -36.93699 -2.60817 -20.00511 41.40532 61.14652 -18.93217 0.65718 7.97587 14.32442 55.04727 119.84751 -64.39707 -16.94921 -0.78649 48.05097 -3.42327 -6.03679 -75.51245 -13.32049 -4.9014 -3.62239 38.4465 0.79428 13.432 -33.59147 -7.16145 2.19731 1.78978
